<svg width="69" height="35" viewBox="0 0 69 35" fill="none" xmlns="http://www.w3.org/2000/svg">
<path d="M1 15.8508V13.6645C1.36914 13.6645 1.68099 13.6457 1.93557 13.608C2.19015 13.5577 2.38744 13.476 2.52746 13.363C2.66748 13.2373 2.76931 13.0614 2.83295 12.8352C2.8966 12.609 2.92842 12.3138 2.92842 11.9494V0.188476H6.0788V12.0813C6.0788 12.9232 5.97697 13.6268 5.77331 14.1922C5.56965 14.7451 5.20688 15.1598 4.685 15.4362C4.17584 15.7126 3.45667 15.8508 2.52746 15.8508H1Z" fill="black"/>
<path d="M12.7207 15.6624C11.5879 15.6624 10.6905 15.4613 10.0286 15.0592C9.36667 14.6572 8.88934 14.0854 8.59658 13.3441C8.31654 12.5902 8.17653 11.6918 8.17653 10.6489V4.95692C8.17653 3.91402 8.31654 3.0219 8.59658 2.28056C8.88934 1.53922 9.36667 0.973793 10.0286 0.584276C10.6905 0.194759 11.5879 0 12.7207 0C13.8663 0 14.7701 0.201041 15.432 0.603123C16.1066 0.992641 16.5839 1.55807 16.864 2.29941C17.1567 3.02818 17.3031 3.91402 17.3031 4.95692V10.6489C17.3031 11.6918 17.1567 12.5902 16.864 13.3441C16.5839 14.0854 16.1066 14.6572 15.432 15.0592C14.7701 15.4613 13.8663 15.6624 12.7207 15.6624ZM12.7207 13.4195C13.128 13.4195 13.4272 13.3315 13.6181 13.1556C13.809 12.9672 13.9363 12.7221 14 12.4206C14.0636 12.1064 14.0954 11.7735 14.0954 11.4216V4.20302C14.0954 3.85119 14.0636 3.5245 14 3.22294C13.9363 2.92138 13.809 2.68264 13.6181 2.50673C13.4272 2.31826 13.128 2.22402 12.7207 2.22402C12.3389 2.22402 12.0525 2.31826 11.8615 2.50673C11.6706 2.68264 11.5433 2.92138 11.4797 3.22294C11.416 3.5245 11.3842 3.85119 11.3842 4.20302V11.4216C11.3842 11.7735 11.4096 12.1064 11.4606 12.4206C11.5242 12.7221 11.6515 12.9672 11.8424 13.1556C12.0334 13.3315 12.3261 13.4195 12.7207 13.4195Z" fill="black"/>
<path d="M19.4066 15.455V0.188476H26.1465V2.3371H22.557V6.38934H25.3255V8.55681H22.557V13.3441H26.1847V15.455H19.4066Z" fill="black"/>
<path d="M27.7786 15.455V0.188476H30.929V13.3441H34.5567V15.455H27.7786Z" fill="black"/>
<path d="M4.88787 35C3.84411 35 3.01673 34.7864 2.40575 34.3592C1.79477 33.9194 1.35562 33.3037 1.08832 32.5121C0.83374 31.708 0.706451 30.7781 0.706451 29.7227V24.615C0.706451 23.5218 0.840104 22.5794 1.10741 21.7878C1.37471 20.9962 1.83932 20.3868 2.50122 19.9596C3.17584 19.5324 4.08596 19.3188 5.23155 19.3188C6.33896 19.3188 7.21088 19.501 7.84732 19.8654C8.49649 20.2298 8.9611 20.7449 9.24113 21.4109C9.52116 22.0768 9.66118 22.8684 9.66118 23.7857V24.6715H6.58717V23.5972C6.58717 23.1951 6.56171 22.8433 6.5108 22.5417C6.45988 22.2276 6.33896 21.9826 6.14803 21.8067C5.96982 21.6308 5.67706 21.5428 5.26974 21.5428C4.84969 21.5428 4.54419 21.6496 4.35326 21.8632C4.16233 22.0768 4.0414 22.3533 3.99049 22.6925C3.93957 23.0192 3.91412 23.371 3.91412 23.748V30.5143C3.91412 30.9415 3.9523 31.3247 4.02868 31.664C4.10505 32.0032 4.24507 32.2671 4.44873 32.4556C4.66512 32.6441 4.97061 32.7383 5.3652 32.7383C5.7598 32.7383 6.06529 32.6378 6.28168 32.4367C6.49807 32.2357 6.64445 31.9655 6.72082 31.6263C6.80993 31.2745 6.85448 30.8787 6.85448 30.4389V28.818H5.34611V26.9332H9.69937V34.7738H7.6373L7.44637 33.398C7.24271 33.8629 6.93721 34.2461 6.52989 34.5477C6.12257 34.8492 5.57523 35 4.88787 35Z" fill="black"/>
<path d="M11.862 34.7738V19.5073H15.8716C16.9153 19.5073 17.8063 19.6266 18.5446 19.8654C19.2956 20.0915 19.8684 20.4999 20.263 21.0905C20.6703 21.681 20.874 22.4978 20.874 23.5407C20.874 24.1689 20.8167 24.7281 20.7022 25.2181C20.6003 25.6956 20.4094 26.1165 20.1294 26.4809C19.862 26.8327 19.4802 27.1154 18.9838 27.329L21.1222 34.7738H17.8954L16.1198 27.8568H15.0124V34.7738H11.862ZM15.0124 26.0097H15.9288C16.438 26.0097 16.8389 25.928 17.1317 25.7647C17.4245 25.6013 17.6281 25.3563 17.7427 25.0296C17.87 24.6904 17.9336 24.2757 17.9336 23.7857C17.9336 23.082 17.8 22.548 17.5327 22.1836C17.2781 21.8067 16.7944 21.6182 16.0816 21.6182H15.0124V26.0097Z" fill="black"/>
<path d="M22.9935 34.7738V19.5073H29.7334V21.6559H26.1439V25.7081H28.9124V27.8756H26.1439V32.6629H29.7716V34.7738H22.9935Z" fill="black"/>
<path d="M32.8165 34.7738V21.8255H30.4299V19.5073H38.3345V21.8255H35.986V34.7738H32.8165Z" fill="black"/>
<path d="M43.7469 34.9812C42.7923 34.9812 41.9967 34.8115 41.3603 34.4723C40.7238 34.1204 40.2402 33.599 39.9092 32.9079C39.591 32.2043 39.4064 31.3122 39.3555 30.2316L42.0667 29.7792C42.0922 30.4075 42.1558 30.9352 42.2577 31.3624C42.3722 31.7771 42.5377 32.0912 42.7541 32.3048C42.9832 32.5058 43.2633 32.6064 43.5942 32.6064C44.0015 32.6064 44.2752 32.4807 44.4152 32.2294C44.568 31.9781 44.6443 31.6891 44.6443 31.3624C44.6443 30.7216 44.4852 30.1876 44.167 29.7604C43.8615 29.3206 43.4542 28.8808 42.945 28.441L41.3412 27.0652C40.7684 26.5877 40.2974 26.0474 39.9283 25.4443C39.5719 24.8411 39.3937 24.0998 39.3937 23.2202C39.3937 21.9637 39.7628 21.0025 40.5011 20.3366C41.2521 19.6581 42.2768 19.3188 43.5751 19.3188C44.3516 19.3188 44.988 19.4444 45.4844 19.6957C45.9809 19.947 46.3627 20.2863 46.63 20.7135C46.9101 21.1282 47.101 21.5868 47.2028 22.0894C47.3174 22.5794 47.3874 23.0695 47.4128 23.5595L44.7207 23.9553C44.6952 23.4904 44.6507 23.082 44.587 22.7302C44.5361 22.3784 44.4216 22.102 44.2434 21.9009C44.0779 21.6999 43.8233 21.5994 43.4796 21.5994C43.1105 21.5994 42.8368 21.7376 42.6586 22.014C42.4804 22.2779 42.3913 22.5731 42.3913 22.8998C42.3913 23.4401 42.5122 23.8862 42.7541 24.238C43.0087 24.5773 43.3524 24.9354 43.7851 25.3123L45.3508 26.6694C45.9999 27.2222 46.5537 27.8568 47.0119 28.573C47.4829 29.2766 47.7183 30.1499 47.7183 31.1928C47.7183 31.909 47.5529 32.5561 47.2219 33.1341C46.891 33.7121 46.4264 34.1644 45.8281 34.4911C45.2426 34.8178 44.5489 34.9812 43.7469 34.9812Z" fill="black"/>
<path d="M53.6732 34.9812C52.5276 34.9812 51.6175 34.7675 50.9429 34.3403C50.281 33.9131 49.8164 33.3226 49.5491 32.5687C49.2817 31.8022 49.1481 30.9164 49.1481 29.9111V24.4265C49.1481 23.371 49.2817 22.4663 49.5491 21.7124C49.8164 20.946 50.281 20.3554 50.9429 19.9408C51.6175 19.5261 52.5276 19.3188 53.6732 19.3188C54.7806 19.3188 55.6462 19.501 56.2699 19.8654C56.9063 20.2298 57.3518 20.7449 57.6064 21.4109C57.8737 22.0768 58.0074 22.8496 58.0074 23.7291V25.0108H54.9524V23.5784C54.9524 23.2265 54.9334 22.8998 54.8952 22.5983C54.857 22.2841 54.7488 22.0329 54.5706 21.8444C54.4051 21.6433 54.1123 21.5428 53.6923 21.5428C53.2722 21.5428 52.9667 21.6433 52.7758 21.8444C52.5849 22.0454 52.464 22.3093 52.413 22.636C52.3621 22.9501 52.3367 23.3019 52.3367 23.6914V30.6274C52.3367 31.0546 52.3685 31.4315 52.4321 31.7582C52.5085 32.0723 52.6422 32.3174 52.8331 32.4933C53.0368 32.6566 53.3232 32.7383 53.6923 32.7383C54.0996 32.7383 54.386 32.6441 54.5515 32.4556C54.7297 32.2545 54.8379 31.9907 54.8761 31.664C54.927 31.3373 54.9524 30.9917 54.9524 30.6274V29.1384H58.0074V30.4012C58.0074 31.2933 57.8801 32.0849 57.6255 32.776C57.3709 33.4545 56.9318 33.9948 56.3081 34.3969C55.6844 34.7864 54.8061 34.9812 53.6732 34.9812Z" fill="black"/>
<path d="M59.9689 34.7738V19.5073H63.1193V25.7835H65.8496V19.5073H69V34.7738H65.8496V28.0075H63.1193V34.7738H59.9689Z" fill="black"/>
</svg>
