<svg width="33" height="32" viewBox="0 0 33 32" fill="none" xmlns="http://www.w3.org/2000/svg">
<path d="M10.7448 1.60141C9.20197 1.6742 8.14839 1.92041 7.22734 2.28233C6.2741 2.65382 5.46616 3.15234 4.66227 3.95912C3.85838 4.7659 3.36334 5.57442 2.99446 6.52911C2.63747 7.45218 2.3956 8.50662 2.32745 10.0503C2.2593 11.594 2.24422 12.0902 2.25176 16.0278C2.2593 19.9654 2.2767 20.459 2.35152 22.0059C2.42519 23.5484 2.67053 24.6017 3.03245 25.523C3.40453 26.4762 3.90246 27.2839 4.70954 28.0881C5.51662 28.8922 6.32456 29.3861 7.28157 29.7556C8.20378 30.112 9.25853 30.355 10.8019 30.4226C12.3453 30.4901 12.8421 30.5058 16.7786 30.4983C20.7151 30.4907 21.2107 30.4733 22.7573 30.4C24.3039 30.3266 25.3517 30.0795 26.2733 29.7193C27.2265 29.3464 28.0348 28.8493 28.8384 28.042C29.642 27.2346 30.1367 26.4255 30.5053 25.4702C30.8626 24.548 31.1053 23.4933 31.1723 21.9511C31.2399 20.4033 31.2558 19.9092 31.2483 15.9721C31.2407 12.0351 31.2231 11.5415 31.1497 9.9952C31.0763 8.44891 30.8307 7.39882 30.469 6.47691C30.0964 5.52367 29.599 4.7166 28.7923 3.91185C27.9855 3.10709 27.1758 2.61264 26.2208 2.24492C25.298 1.88793 24.2438 1.64462 22.7004 1.57792C21.1571 1.51122 20.6603 1.49411 16.7223 1.50165C12.7844 1.50919 12.2914 1.52601 10.7448 1.60141ZM22.735 8.25026C22.7355 8.59443 22.8382 8.93069 23.0299 9.21653C23.2216 9.50236 23.4937 9.72493 23.8119 9.85608C24.1301 9.98723 24.4801 10.0211 24.8175 9.95332C25.1549 9.88557 25.4647 9.71928 25.7076 9.47547C25.9505 9.23166 26.1157 8.9213 26.1822 8.58362C26.2487 8.24594 26.2136 7.89612 26.0813 7.57841C25.9489 7.2607 25.7254 6.98936 25.4388 6.79871C25.1523 6.60806 24.8157 6.50667 24.4715 6.50736C24.0101 6.50828 23.568 6.69241 23.2423 7.01925C22.9167 7.34609 22.7342 7.78889 22.735 8.25026ZM9.30492 16.0145C9.31305 20.1267 12.6527 23.4527 16.7641 23.4449C20.8755 23.437 24.2038 20.0977 24.196 15.9855C24.1882 11.8732 20.8476 8.54635 16.7357 8.55447C12.6237 8.56259 9.29709 11.9028 9.30492 16.0145ZM11.9167 16.0092C11.9148 15.0533 12.1964 14.1182 12.726 13.3223C13.2555 12.5264 14.0092 11.9054 14.8916 11.5378C15.7741 11.1702 16.7458 11.0726 17.6837 11.2572C18.6217 11.4419 19.4839 11.9005 20.1612 12.5752C20.8385 13.2498 21.3005 14.1101 21.4889 15.0473C21.6772 15.9846 21.5835 16.9566 21.2194 17.8405C20.8553 18.7244 20.2373 19.4805 19.4435 20.0132C18.6496 20.5459 17.7157 20.8312 16.7597 20.8331C16.125 20.8344 15.4962 20.7107 14.9092 20.469C14.3223 20.2273 13.7887 19.8723 13.339 19.4244C12.8892 18.9764 12.5322 18.4443 12.2881 17.8583C12.0441 17.2723 11.9179 16.644 11.9167 16.0092Z" fill="black"/>
<path d="M22.7349 8.25023C22.7355 8.5944 22.8381 8.93066 23.0298 9.2165C23.2215 9.50233 23.4937 9.7249 23.8119 9.85605C24.1301 9.9872 24.48 10.021 24.8175 9.95329C25.1549 9.88554 25.4647 9.71925 25.7076 9.47544C25.9505 9.23164 26.1156 8.92127 26.1822 8.58359C26.2487 8.24591 26.2135 7.89609 26.0812 7.57838C25.9489 7.26067 25.7253 6.98933 25.4388 6.79868C25.1523 6.60803 24.8156 6.50664 24.4715 6.50733C24.0101 6.50825 23.568 6.69238 23.2423 7.01922C22.9167 7.34606 22.7341 7.78886 22.7349 8.25023ZM9.30488 16.0144C9.313 20.1266 12.6527 23.4527 16.7641 23.4448C20.8754 23.437 24.2038 20.0976 24.196 15.9854C24.1881 11.8732 20.8476 8.54632 16.7356 8.55444C12.6237 8.56256 9.29705 11.9028 9.30488 16.0144ZM11.9167 16.0092C11.9148 15.0532 12.1964 14.1182 12.7259 13.3223C13.2555 12.5264 14.0091 11.9054 14.8916 11.5378C15.7741 11.1702 16.7457 11.0726 17.6837 11.2572C18.6217 11.4419 19.4838 11.9005 20.1611 12.5751C20.8384 13.2498 21.3005 14.1101 21.4888 15.0473C21.6772 15.9845 21.5834 16.9566 21.2193 17.8405C20.8552 18.7244 20.2372 19.4805 19.4434 20.0132C18.6496 20.5459 17.7157 20.8312 16.7597 20.8331C16.1249 20.8344 15.4961 20.7107 14.9092 20.469C14.3222 20.2273 13.7887 19.8723 13.3389 19.4243C12.8892 18.9764 12.5321 18.4442 12.2881 17.8583C12.044 17.2723 11.9178 16.644 11.9167 16.0092Z" fill="#F7E9EE"/>
</svg>
