<svg width="33" height="32" viewBox="0 0 33 32" fill="none" xmlns="http://www.w3.org/2000/svg">
<g clip-path="url(#clip0_14_408)">
<path d="M30.4643 8.0345L22.9214 14.503L30.4643 21.1087L32.75 23.1202V7.88592C32.75 7.3373 32.6014 6.83444 32.3614 6.40015L30.4643 8.0345Z" fill="black"/>
<path d="M32.27 25.7372L30.4643 24.1486L21.1729 16.0115L19.6071 17.3486C18.7843 18.0572 17.7672 18.4 16.75 18.4C15.7328 18.4 14.7271 18.0572 13.8929 17.3486L12.3271 16.0115L3.03572 24.1486L1.22998 25.7372C1.76716 26.5486 2.68143 27.0858 3.7214 27.0858H29.7786C30.8186 27.0858 31.7328 26.5486 32.27 25.7372Z" fill="black"/>
<path d="M10.5785 14.503L3.03571 8.03449L1.13861 6.40015C0.898583 6.83443 0.75 7.3373 0.75 7.88592V23.1087L3.03571 21.1087L10.5785 14.503Z" fill="black"/>
<path d="M12.9786 13.5543C13.0472 13.6001 13.1272 13.6686 13.1843 13.7372L15.3786 15.6114C16.1671 16.2857 17.3214 16.2857 18.1214 15.6114L20.3157 13.7372C20.3728 13.6686 20.4528 13.6001 20.5214 13.5543L27.9272 7.20002L30.4872 5.00576C30.2586 4.94863 30.03 4.91431 29.7786 4.91431H3.72142C3.47002 4.91431 3.24144 4.94863 3.01285 5.00576L5.57284 7.20002L12.9786 13.5543Z" fill="black"/>
</g>
<defs>
<clipPath id="clip0_14_408">
<rect width="32" height="32" fill="white" transform="translate(0.75)"/>
</clipPath>
</defs>
</svg>
