<svg width="33" height="32" viewBox="0 0 33 32" fill="none" xmlns="http://www.w3.org/2000/svg">
<path d="M26.0102 5.92683C25.8663 5.82927 25.7224 5.82927 25.5785 5.87805C24.3795 6.41463 23.1325 6.02439 22.4131 5.04878C22.0773 4.60976 21.8855 4.02439 21.8855 3.4878C21.8855 3.34146 21.8375 3.2439 21.7416 3.14634C21.6457 3.04878 21.5498 3 21.4059 3H16.5138C16.226 3 16.0342 3.19512 16.0342 3.4878V20.8049C16.0342 20.8537 16.0342 20.8537 16.0342 20.9024C15.9382 21.7805 15.2668 22.4146 14.4035 22.4146C13.4922 22.4146 12.7248 21.6341 12.7248 20.7073C12.7248 19.8293 13.3483 19.1463 14.2116 19.0488C14.4514 19 14.6433 18.8049 14.6433 18.561V12.9024C14.6433 12.6098 14.4514 12.4146 14.1637 12.4146C14.1637 12.4146 14.1157 12.4146 14.0677 12.4146C9.65528 12.6098 6.25 16.2195 6.25 20.7073C6.25 25.2927 9.89508 29 14.4035 29C18.6241 29 22.1733 25.6829 22.509 21.439C22.557 21.3902 22.557 21.2927 22.557 21.2439V11.8293C23.6121 12.0732 24.7152 12.1707 25.8663 11.9756C26.1061 11.9268 26.25 11.7317 26.25 11.4878V6.31707C26.25 6.17073 26.1541 6.02439 26.0102 5.92683Z" fill="black"/>
</svg>
