<svg width="33" height="32" viewBox="0 0 33 32" fill="none" xmlns="http://www.w3.org/2000/svg">
<g clip-path="url(#clip0_14_418)">
<path d="M29.3716 9.22158C29.3917 9.51451 29.3917 9.80744 29.3917 10.1031C29.3917 19.1111 22.5812 29.5 10.1279 29.5V29.4946C6.44921 29.5 2.84689 28.439 -0.25 26.4384C0.284918 26.5032 0.822517 26.5356 1.36146 26.5369C4.41009 26.5396 7.37157 25.5097 9.76999 23.613C6.87285 23.5577 4.33233 21.6556 3.44482 18.8789C4.45969 19.076 5.50539 19.0355 6.50149 18.7614C3.34293 18.1189 1.07054 15.3245 1.07054 12.0793V11.993C2.01167 12.5208 3.06542 12.8137 4.1433 12.8461C1.1684 10.8442 0.251402 6.85923 2.04787 3.74363C5.48528 8.00261 10.5569 10.5917 16.0013 10.8658C15.4557 8.49803 16.2011 6.01688 17.96 4.35244C20.6869 1.7714 24.9756 1.90369 27.5389 4.64807C29.0552 4.34704 30.5084 3.78682 31.8384 2.99307C31.3329 4.57112 30.2752 5.91159 28.8621 6.76339C30.2041 6.6041 31.5153 6.24232 32.75 5.6902C31.841 7.06172 30.6961 8.25639 29.3716 9.22158Z" fill="black"/>
</g>
<defs>
<clipPath id="clip0_14_418">
<rect width="32" height="32" fill="white" transform="translate(0.25)"/>
</clipPath>
</defs>
</svg>
